<svg width="110" height="112" viewBox="0 0 110 112" fill="none" xmlns="http://www.w3.org/2000/svg" xmlns:xlink="http://www.w3.org/1999/xlink">
<path d="M48.219,17.151C47.561,12.914 45.459,9.06 42.291,6.282C39.123,3.504 35.097,1.985 30.941,2C26.784,2.015 22.769,3.562 19.619,6.362C16.47,9.163 14.393,13.032 13.763,17.273C10.823,17.804 8.107,19.238 5.97,21.389C4.695,22.663 3.682,24.188 2.989,25.874C2.297,27.559 1.939,29.371 1.938,31.202C1.938,35.092 3.486,38.798 6.298,41.636C6.527,41.867 6.763,42.09 7.006,42.304L8.377,38.057C6.792,36.163 5.813,33.752 5.813,31.202C5.813,25.907 10.138,21.45 15.661,21.056L17.363,20.935L17.461,19.177C17.665,15.615 19.178,12.268 21.692,9.819C24.205,7.37 27.53,6.004 30.987,6.001C34.443,5.997 37.77,7.356 40.289,9.8C42.807,12.244 44.327,15.588 44.537,19.149L44.645,21.01L46.451,21.03C52.093,21.091 56.188,25.369 56.188,31.202C56.188,35.346 54.165,38.875 51.121,40.69L49.531,45.613C52.087,44.972 54.402,43.564 56.184,41.568C58.685,38.792 60.063,35.111 60.063,31.202C60.063,23.813 55.081,18.05 48.219,17.151Z" fill="#F8F8F8"/>
<path d="M15.261,62L19.353,62L27.022,38.642L23.353,37.358L15.261,62ZM35.605,62L39.697,62L47.366,38.642L43.696,37.358L35.605,62ZM35.13,31.379L27.341,56L31.417,56L38.814,32.621L35.13,31.379ZM15.596,31.379L7.806,56L11.882,56L19.279,32.621L15.596,31.379Z" fill="#F8F8F8"/>
<path d="M96.219,65.151C95.561,60.914 93.459,57.06 90.291,54.282C87.123,51.504 83.097,49.985 78.94,50C74.784,50.015 70.769,51.562 67.619,54.362C64.47,57.163 62.393,61.032 61.763,65.273C58.823,65.804 56.107,67.238 53.97,69.389C52.695,70.663 51.682,72.188 50.989,73.874C50.297,75.559 49.939,77.371 49.938,79.202C49.938,83.092 51.486,86.798 54.298,89.636C54.527,89.867 54.763,90.09 55.006,90.304L56.378,86.057C54.792,84.163 53.813,81.752 53.813,79.202C53.813,73.907 58.138,69.45 63.661,69.056L65.363,68.935L65.461,67.177C65.665,63.615 67.178,60.268 69.692,57.819C72.205,55.37 75.53,54.004 78.987,54.001C82.443,53.997 85.77,55.356 88.289,57.8C90.807,60.244 92.327,63.588 92.537,67.149L92.645,69.01L94.451,69.03C100.093,69.091 104.188,73.369 104.188,79.202C104.188,83.346 102.165,86.875 99.121,88.69L97.531,93.613C100.087,92.972 102.402,91.564 104.184,89.568C106.685,86.792 108.063,83.111 108.063,79.202C108.063,71.813 103.081,66.05 96.219,65.151Z" fill="#F8F8F8"/>
<path d="M63.261,110L67.353,110L75.022,86.642L71.353,85.358L63.261,110ZM83.605,110L87.697,110L95.366,86.642L91.696,85.358L83.605,110ZM83.13,79.379L75.341,104L79.417,104L86.814,80.621L83.13,79.379ZM63.596,79.379L55.806,104L59.882,104L67.279,80.621L63.596,79.379Z" fill="#F8F8F8"/>
</svg>
