<svg width="412" height="360" viewBox="0 0 412 360" fill="none" xmlns="http://www.w3.org/2000/svg" xmlns:xlink="http://www.w3.org/1999/xlink">
<path d="M28.641,11.453C29.946,12.726 30.805,14.263 31.299,15.922C32.1,18.616 32.049,21.636 31.779,24.715C31.24,30.874 29.895,37.355 31.464,41.378C32.937,45.154 35.298,47.396 37.918,48.499C39.045,48.973 40.231,49.236 41.431,49.304C44.3,41.58 43.688,31.722 38.968,25.06C45.217,30.784 48.168,39.428 46.262,48.488L45.127,48.906C45.481,48.809 45.83,48.697 46.173,48.569C51.573,46.567 55.991,40.706 54.153,32.114C53.308,28.166 50.41,22.6 45.559,18.288C41.362,14.558 35.76,11.735 28.641,11.453ZM65.339,33.234C65.231,34.67 64.74,36.026 63.975,37.258C62.637,39.411 60.557,41.264 58.304,43.025C53.8,46.546 48.605,49.808 46.891,53.138C45.269,56.293 45.226,58.983 46.092,61.123C46.462,62.039 47.015,62.883 47.724,63.612C54.664,60.433 60.871,54.009 62.432,47.231C62.442,54.309 58.473,61.316 51.237,65.852C55.864,67.578 62.387,66.449 66.967,60.185C69.089,57.283 71.046,52.198 70.949,46.789C70.867,42.198 69.364,37.386 65.339,33.234ZM10.431,41.953C9.206,47.398 10.523,52.258 12.952,56.272C15.812,61 20.277,64.506 23.694,66.044C31.069,69.366 37.33,67.346 40.397,63.727C31.663,63.121 24.412,58.876 20.568,52.742C25.611,57.895 34.481,60.609 42.223,60.174C42.441,59.218 42.461,58.233 42.284,57.27C41.868,55.019 40.362,52.707 37.24,50.72C33.943,48.623 27.67,48.185 21.853,47.205C18.944,46.714 16.134,46.066 13.804,44.816C12.47,44.101 11.308,43.148 10.431,41.953Z" transform="rotate(-59.775 40.459 39.591)" fill="#F8F8F8"/>
<path d="M412,192C412,284.784 330.068,360 229,360C127.932,360 46,284.784 46,192C46,99.216 127.932,24 229,24C330.068,24 412,99.216 412,192Z" fill="#D9D9D9"/>
<path d="M360.492,290.72C341.034,253.37 311.048,226.588 276.054,213.892C293.364,202.452 306.812,185.018 314.334,164.27C321.856,143.522 323.036,120.605 317.692,99.04C312.348,77.476 300.778,58.454 284.755,44.898C268.732,31.342 249.145,24 229,24C208.855,24 189.268,31.342 173.245,44.898C157.223,58.454 145.651,77.476 140.307,99.04C134.964,120.605 136.143,143.522 143.665,164.27C151.188,185.018 164.636,202.452 181.946,213.892C146.952,226.574 116.966,253.356 97.508,290.72C96.794,292.01 96.321,293.448 96.116,294.946C95.911,296.444 95.978,297.974 96.314,299.442C96.649,300.912 97.247,302.29 98.07,303.498C98.894,304.708 99.927,305.72 101.109,306.478C102.291,307.236 103.597,307.724 104.952,307.912C106.306,308.1 107.68,307.986 108.994,307.574C110.308,307.164 111.534,306.464 112.6,305.518C113.667,304.572 114.552,303.398 115.203,302.068C139.273,255.88 181.818,228.304 229,228.304C276.182,228.304 318.726,255.88 342.796,302.068C343.448,303.398 344.334,304.572 345.4,305.518C346.466,306.464 347.692,307.164 349.006,307.574C350.32,307.986 351.694,308.1 353.048,307.912C354.402,307.724 355.71,307.236 356.892,306.478C358.074,305.72 359.106,304.708 359.93,303.498C360.754,302.29 361.35,300.912 361.686,299.442C362.022,297.974 362.09,296.444 361.884,294.946C361.678,293.448 361.206,292.01 360.492,290.72ZM157.454,126.172C157.454,110.46 161.65,95.102 169.511,82.039C177.373,68.976 188.547,58.794 201.62,52.782C214.694,46.769 229.079,45.196 242.958,48.261C256.837,51.326 269.585,58.892 279.591,70.001C289.597,81.111 296.41,95.265 299.172,110.674C301.932,126.083 300.516,142.056 295.1,156.571C289.685,171.086 280.515,183.492 268.749,192.221C256.983,200.949 243.151,205.608 229,205.608C210.031,205.586 191.845,197.209 178.432,182.317C165.018,167.425 157.474,147.233 157.454,126.172Z" fill="#4E8D60"/>
</svg>
