<svg width="76" height="62" viewBox="0 0 76 62" fill="none" xmlns="http://www.w3.org/2000/svg" xmlns:xlink="http://www.w3.org/1999/xlink">
<path d="M26.475,2.039C18.882,4.188 12.333,8.267 7.791,13.677C3.249,19.086 0.954,25.542 1.241,32.094C1.529,38.647 4.385,44.952 9.389,50.083C14.394,55.213 21.284,58.9 29.046,60.6C35.34,61.925 41.933,61.983 48.26,60.77C53.992,59.719 59.291,57.473 63.638,54.25C68.163,50.793 71.447,46.396 73.138,41.53C74.976,36.239 75.303,30.675 74.094,25.265L38.754,25.265L38.754,37.224L59.221,37.224C58.812,39.132 57.935,40.952 56.644,42.577C55.352,44.201 53.672,45.597 51.704,46.679C49.205,48.028 46.387,48.935 43.433,49.343C40.47,49.793 37.43,49.793 34.467,49.343C31.464,48.837 28.623,47.825 26.125,46.374C22.112,44.057 19.099,40.765 17.516,36.967C15.905,33.099 15.905,28.906 17.516,25.037C18.643,22.326 20.506,19.857 22.966,17.815C25.782,15.436 29.346,13.735 33.269,12.899C37.191,12.064 41.32,12.126 45.202,13.078C48.235,13.838 51.008,15.165 53.301,16.953C55.609,15.08 57.912,13.202 60.212,11.32C61.4,10.307 62.694,9.344 63.864,8.307C60.364,5.65 56.256,3.583 51.775,2.223C43.615,-0.194 34.687,-0.259 26.475,2.039Z" fill="#FFFFFF"/>
<path d="M26.475,2.039C34.686,-0.26 43.614,-0.197 51.775,2.218C56.257,3.587 60.363,5.664 63.858,8.331C62.67,9.368 61.417,10.337 60.206,11.344C57.902,13.22 55.601,15.09 53.301,16.953C51.008,15.165 48.235,13.838 45.202,13.078C41.321,12.122 37.193,12.057 33.269,12.889C29.346,13.721 25.779,15.419 22.96,17.796C20.5,19.838 18.637,22.307 17.51,25.018L5.201,17.244C9.607,10.116 17.235,4.665 26.475,2.039Z" fill="#E33629"/>
<path d="M1.936,24.945C2.597,22.271 3.696,19.68 5.201,17.244L17.51,25.037C15.9,28.906 15.9,33.099 17.51,36.968C13.409,39.551 9.306,42.147 5.201,44.756C1.432,38.635 0.282,31.661 1.936,24.945Z" fill="#F8BD00"/>
<path d="M38.754,25.26L74.094,25.26C75.303,30.67 74.976,36.234 73.138,41.525C71.447,46.391 68.163,50.788 63.638,54.245C59.666,51.717 55.676,49.208 51.704,46.679C53.673,45.596 55.354,44.199 56.646,42.572C57.937,40.946 58.813,39.124 59.221,37.215L38.754,37.215C38.748,33.233 38.754,29.247 38.754,25.26Z" fill="#587DBD"/>
<path d="M5.195,44.756C9.3,42.173 13.403,39.577 17.504,36.967C19.09,40.766 22.108,44.058 26.125,46.374C28.631,47.819 31.478,48.822 34.485,49.319C37.448,49.769 40.488,49.769 43.451,49.319C46.405,48.911 49.222,48.004 51.722,46.655C55.694,49.183 59.684,51.692 63.656,54.221C59.309,57.445 54.01,59.694 48.278,60.745C41.951,61.959 35.357,61.901 29.064,60.576C24.087,59.492 19.437,57.58 15.408,54.962C11.143,52.2 7.659,48.718 5.195,44.756Z" fill="#319F43"/>
</svg>
