<svg width="246" height="266" viewBox="0 0 246 266" fill="none" xmlns="http://www.w3.org/2000/svg" xmlns:xlink="http://www.w3.org/1999/xlink">
<path d="M107,13.3C107,5.955 112.967,-0.063 120.282,0.608C139.434,2.368 158.047,7.917 174.918,16.958C195.668,28.077 213.09,44.105 225.516,63.508C237.944,82.911 244.96,105.04 245.892,127.778C246.826,150.517 241.648,173.105 230.85,193.381C220.052,213.656 203.998,230.942 184.224,243.586C164.45,256.228 141.615,263.804 117.906,265.59C94.196,267.376 70.405,263.31 48.806,253.784C31.655,246.218 16.343,235.41 3.765,222.06C-1.572,216.396 -0.126,207.472 6.264,203.03L6.264,203.03C12.286,198.844 20.478,200.222 25.591,205.48C35.426,215.594 47.256,223.808 60.445,229.626C77.724,237.248 96.757,240.5 115.725,239.072C134.692,237.644 152.96,231.582 168.78,221.468C184.6,211.354 197.442,197.525 206.08,181.305C214.718,165.084 218.862,147.014 218.114,128.823C217.368,110.632 211.754,92.928 201.814,77.406C191.872,61.884 177.936,49.062 161.335,40.166C148.616,33.351 134.66,29.015 120.271,27.36C112.974,26.521 107,20.645 107,13.3L107,13.3Z" fill="#6AC082"/>
</svg>
