<svg width="78" height="72" viewBox="0 0 78 72" fill="none" xmlns="http://www.w3.org/2000/svg" xmlns:xlink="http://www.w3.org/1999/xlink">
<path d="M59.719,0L18.281,0C8.185,0 0,7.555 0,16.875L0,55.125C0,64.445 8.185,72 18.281,72L59.719,72C69.815,72 78,64.445 78,55.125L78,16.875C78,7.555 69.815,0 59.719,0Z" fill="url(#pf_0_11_17)"/>
<path d="M59.719,0L18.281,0C8.185,0 0,7.555 0,16.875L0,55.125C0,64.445 8.185,72 18.281,72L59.719,72C69.815,72 78,64.445 78,55.125L78,16.875C78,7.555 69.815,0 59.719,0Z" fill="url(#pf_0_11_18)"/>
<path d="M39.003,7.875C30.728,7.875 29.689,7.908 26.44,8.045C23.196,8.182 20.982,8.656 19.044,9.352C17.04,10.07 15.34,11.031 13.647,12.595C11.952,14.158 10.911,15.727 10.13,17.576C9.375,19.365 8.861,21.41 8.715,24.403C8.569,27.403 8.531,28.362 8.531,36C8.531,43.639 8.568,44.594 8.715,47.594C8.865,50.588 9.378,52.632 10.131,54.42C10.91,56.271 11.951,57.84 13.645,59.403C15.338,60.967 17.038,61.931 19.041,62.649C20.979,63.345 23.194,63.818 26.437,63.956C29.687,64.092 30.725,64.126 38.999,64.126C47.275,64.126 48.31,64.092 51.56,63.956C54.803,63.818 57.02,63.345 58.959,62.649C60.962,61.931 62.66,60.967 64.352,59.403C66.047,57.84 67.088,56.271 67.869,54.421C68.618,52.632 69.132,50.588 69.285,47.595C69.431,44.595 69.469,43.639 69.469,36C69.469,28.362 69.431,27.403 69.285,24.403C69.132,21.409 68.618,19.365 67.869,17.577C67.088,15.727 66.047,14.158 64.352,12.595C62.658,11.03 60.963,10.069 58.957,9.352C57.015,8.656 54.799,8.182 51.556,8.045C48.305,7.908 47.271,7.875 38.993,7.875L39.003,7.875ZM36.269,12.943C37.081,12.942 37.986,12.943 39.003,12.943C47.138,12.943 48.102,12.97 51.315,13.105C54.286,13.231 55.898,13.689 56.972,14.074C58.394,14.583 59.408,15.193 60.473,16.177C61.54,17.162 62.2,18.099 62.753,19.412C63.171,20.402 63.667,21.89 63.803,24.632C63.949,27.597 63.98,28.488 63.98,35.994C63.98,43.5 63.949,44.391 63.803,47.355C63.667,50.097 63.171,51.586 62.753,52.576C62.201,53.889 61.54,54.823 60.473,55.807C59.407,56.791 58.395,57.401 56.972,57.911C55.899,58.297 54.286,58.754 51.315,58.88C48.103,59.014 47.138,59.044 39.003,59.044C30.867,59.044 29.903,59.014 26.691,58.88C23.72,58.753 22.108,58.295 21.033,57.91C19.611,57.4 18.595,56.791 17.529,55.806C16.463,54.822 15.803,53.887 15.249,52.574C14.832,51.583 14.335,50.095 14.2,47.353C14.054,44.388 14.024,43.498 14.024,35.987C14.024,28.476 14.054,27.59 14.2,24.625C14.336,21.883 14.832,20.395 15.249,19.403C15.801,18.091 16.463,17.153 17.529,16.169C18.596,15.185 19.611,14.575 21.033,14.064C22.107,13.678 23.72,13.221 26.691,13.095C29.502,12.977 30.591,12.942 36.269,12.936L36.269,12.943ZM55.267,17.613C53.248,17.613 51.611,19.124 51.611,20.987C51.611,22.85 53.248,24.362 55.267,24.362C57.285,24.362 58.923,22.85 58.923,20.987C58.923,19.124 57.285,17.612 55.267,17.612L55.267,17.613ZM39.003,21.557C30.362,21.557 23.356,28.024 23.356,36C23.356,43.977 30.362,50.441 39.003,50.441C47.644,50.441 54.647,43.977 54.647,36C54.647,28.024 47.643,21.557 39.002,21.557L39.003,21.557ZM39.003,26.625C44.612,26.625 49.159,30.822 49.159,36C49.159,41.178 44.612,45.375 39.003,45.375C33.393,45.375 28.847,41.178 28.847,36C28.847,30.822 33.393,26.625 39.003,26.625Z" fill="#FFFFFF"/>
<defs>
<radialGradient id="pf_0_11_17" cx="0" cy="0" r="1" gradientUnits="userSpaceOnUse" gradientTransform="matrix(0 -35.678673 35.949316 0 10.359 38.773)">
<stop stop-color="#FFDD55"/>
<stop offset="0.1" stop-color="#FFDD55"/>
<stop offset="0.5" stop-color="#FF543E"/>
<stop offset="1" stop-color="#C837AB"/>
</radialGradient>
<radialGradient id="pf_0_11_18" cx="0" cy="0" r="1" gradientUnits="userSpaceOnUse" gradientTransform="matrix(3.391099 15.638357 -69.833639 12.902971 -6.533 2.593)">
<stop stop-color="#3771C8"/>
<stop offset="0.128" stop-color="#3771C8"/>
<stop offset="1" stop-color="#6600FF" stop-opacity="0"/>
</radialGradient>
</defs>
</svg>
