<svg width="62" height="58" viewBox="0 0 62 58" fill="none" xmlns="http://www.w3.org/2000/svg" xmlns:xlink="http://www.w3.org/1999/xlink">
<path d="M18.407,-0.113C19.711,1.16 20.571,2.697 21.064,4.356C21.866,7.05 21.815,10.07 21.545,13.149C21.005,19.308 19.661,25.789 21.23,29.812C22.702,33.588 25.064,35.83 27.684,36.933C28.811,37.407 29.997,37.67 31.197,37.738C34.065,30.014 33.453,20.156 28.734,13.494C34.982,19.218 37.934,27.862 36.027,36.922L34.893,37.34C35.247,37.243 35.596,37.131 35.938,37.003C41.338,35.001 45.757,29.14 43.919,20.548C43.074,16.6 40.175,11.034 35.325,6.722C31.128,2.992 25.525,0.169 18.407,-0.113ZM55.105,21.668C54.996,23.104 54.506,24.46 53.74,25.692C52.402,27.845 50.322,29.698 48.07,31.459C43.566,34.98 38.37,38.242 36.657,41.572C35.035,44.727 34.992,47.417 35.858,49.557C36.228,50.473 36.781,51.317 37.489,52.046C44.43,48.867 50.636,42.443 52.197,35.665C52.207,42.743 48.239,49.75 41.003,54.286C45.629,56.012 52.153,54.883 56.733,48.619C58.855,45.717 60.811,40.632 60.715,35.223C60.633,30.632 59.13,25.82 55.105,21.668ZM0.197,30.387C-1.028,35.832 0.289,40.692 2.717,44.706C5.578,49.434 10.042,52.94 13.46,54.478C20.835,57.8 27.096,55.78 30.163,52.161C21.428,51.555 14.178,47.31 10.334,41.176C15.377,46.329 24.247,49.043 31.989,48.608C32.206,47.652 32.227,46.667 32.049,45.704C31.634,43.453 30.128,41.141 27.005,39.154C23.709,37.057 17.436,36.619 11.618,35.639C8.709,35.148 5.9,34.5 3.57,33.25C2.236,32.535 1.073,31.582 0.197,30.387Z" transform="rotate(-7.31 30.225 28.025)" fill="#F8F8F8"/>
</svg>
