<svg width="26" height="24" viewBox="0 0 26 24" fill="none" xmlns="http://www.w3.org/2000/svg" xmlns:xlink="http://www.w3.org/1999/xlink">
<path d="M13,22.25C12.242,22.25 11.601,21.948 11.077,21.344C10.553,20.74 10.292,20 10.292,19.125C10.292,18.25 10.553,17.51 11.077,16.906C11.601,16.302 12.242,16 13,16C13.758,16 14.399,16.302 14.923,16.906C15.447,17.51 15.708,18.25 15.708,19.125C15.708,20 15.447,20.74 14.923,21.344C14.399,21.948 13.758,22.25 13,22.25ZM6.879,15.188L4.604,12.5C5.669,11.271 6.92,10.297 8.356,9.579C9.792,8.86 11.34,8.501 13,8.5C14.66,8.499 16.209,8.864 17.645,9.594C19.082,10.324 20.332,11.313 21.396,12.563L19.121,15.188C18.326,14.271 17.406,13.552 16.358,13.031C15.311,12.51 14.192,12.25 13,12.25C11.808,12.25 10.689,12.51 9.642,13.031C8.594,13.552 7.674,14.271 6.879,15.188ZM2.275,9.875L0,7.25C1.661,5.292 3.602,3.76 5.823,2.656C8.044,1.552 10.436,1 13,1C15.564,1 17.956,1.552 20.177,2.656C22.398,3.76 24.339,5.292 26,7.25L23.725,9.875C22.335,8.271 20.723,7.016 18.891,6.11C17.059,5.204 15.095,4.751 13,4.75C10.905,4.749 8.941,5.203 7.11,6.11C5.278,7.017 3.667,8.273 2.275,9.875Z" fill="#000000"/>
</svg>
