<svg width="62" height="56" viewBox="0 0 62 56" fill="none" xmlns="http://www.w3.org/2000/svg" xmlns:xlink="http://www.w3.org/1999/xlink">
<path d="M18.641,-0.547C19.946,0.726 20.805,2.263 21.299,3.922C22.1,6.616 22.049,9.636 21.779,12.715C21.24,18.874 19.895,25.355 21.464,29.378C22.937,33.154 25.298,35.396 27.918,36.499C29.045,36.973 30.231,37.236 31.431,37.304C34.3,29.58 33.688,19.722 28.968,13.06C35.217,18.784 38.168,27.428 36.262,36.488L35.127,36.906C35.481,36.809 35.83,36.697 36.173,36.569C41.573,34.567 45.991,28.706 44.153,20.114C43.308,16.166 40.41,10.6 35.559,6.288C31.362,2.558 25.76,-0.265 18.641,-0.547ZM55.339,21.234C55.231,22.67 54.74,24.026 53.975,25.258C52.637,27.411 50.557,29.264 48.304,31.025C43.8,34.546 38.605,37.808 36.891,41.138C35.269,44.293 35.226,46.983 36.092,49.123C36.462,50.039 37.015,50.883 37.724,51.612C44.664,48.433 50.871,42.009 52.432,35.231C52.442,42.309 48.473,49.316 41.237,53.852C45.864,55.578 52.387,54.449 56.967,48.185C59.089,45.283 61.046,40.198 60.949,34.789C60.867,30.198 59.364,25.386 55.339,21.234ZM0.431,29.953C-0.794,35.398 0.523,40.258 2.952,44.272C5.812,49 10.277,52.506 13.694,54.044C21.069,57.366 27.33,55.346 30.397,51.727C21.663,51.121 14.412,46.876 10.568,40.742C15.611,45.895 24.481,48.609 32.223,48.174C32.441,47.218 32.461,46.233 32.284,45.27C31.868,43.019 30.362,40.707 27.24,38.72C23.943,36.623 17.67,36.185 11.853,35.205C8.944,34.714 6.134,34.066 3.804,32.816C2.47,32.101 1.308,31.148 0.431,29.953Z" transform="rotate(-59.775 30.459 27.591)" fill="#F8F8F8"/>
</svg>
