<svg width="32" height="16" viewBox="0 0 32 16" fill="none" xmlns="http://www.w3.org/2000/svg" xmlns:xlink="http://www.w3.org/1999/xlink">
<path d="M0,4C0,2.939 0.421,1.922 1.172,1.172C1.922,0.421 2.939,0 4,0L24,0C25.061,0 26.078,0.421 26.828,1.172C27.579,1.922 28,2.939 28,4L28,12C28,13.061 27.579,14.078 26.828,14.828C26.078,15.579 25.061,16 24,16L4,16C2.939,16 1.922,15.579 1.172,14.828C0.421,14.078 0,13.061 0,12L0,4ZM4,2C3.47,2 2.961,2.211 2.586,2.586C2.211,2.961 2,3.47 2,4L2,12C2,12.53 2.211,13.039 2.586,13.414C2.961,13.789 3.47,14 4,14L24,14C24.53,14 25.039,13.789 25.414,13.414C25.789,13.039 26,12.53 26,12L26,4C26,3.47 25.789,2.961 25.414,2.586C25.039,2.211 24.53,2 24,2L4,2ZM32,8C32,8.796 31.684,9.559 31.121,10.121C30.559,10.684 29.796,11 29,11L29,5C29.796,5 30.559,5.316 31.121,5.879C31.684,6.441 32,7.204 32,8Z" fill="#000000"/>
</svg>
